<?xml version="1.0" encoding="UTF-8"?>
<svg width="88px" height="63px" viewBox="0 0 88 63" version="1.1" xmlns="http://www.w3.org/2000/svg" xmlns:xlink="http://www.w3.org/1999/xlink">
    <!-- Generator: Sketch 43.2 (39069) - http://www.bohemiancoding.com/sketch -->
    <title>Cloudy</title>
    <desc>Created with Sketch.</desc>
    <defs>
        <path d="M45.8441232,27.3540153 C45.5941134,27.405907 45.3349452,27.4331807 45.0692486,27.4331807 L10.2630513,27.4331807 C10.1873727,27.4331807 10.1122138,27.4309462 10.0376365,27.4265402 C9.91740756,27.4309543 9.79661833,27.4331807 9.67530765,27.4331807 C4.33178278,27.4331807 0,23.1133768 0,17.7846286 C0,12.4558804 4.33178278,8.13607642 9.67530765,8.13607642 C11.9229581,8.13607642 13.9916009,8.90038006 15.6341511,10.1825857 C17.3772708,4.99204057 22.2928938,1.25170406 28.0845417,1.25170406 C31.5088663,1.25170406 34.6269508,2.5592478 36.9641374,4.70098999 C39.4855888,1.82015631 43.1949243,0 47.330559,0 C54.9270295,0 61.0851856,6.14112669 61.0851856,13.7165904 C61.0851856,21.292054 54.9270295,27.4331807 47.330559,27.4331807 C46.8283392,27.4331807 46.3324059,27.4063389 45.8441232,27.3540153 Z" id="path-1"></path>
        <path d="M30.9813894,21.1114508 C30.6540509,21.2046549 30.3089399,21.2545364 29.952734,21.2545364 L6.71318654,21.2545364 C6.41823141,21.2545364 6.13117601,21.2206662 5.85568726,21.1565853 C5.57453535,21.2088562 5.28528999,21.2361104 4.99005632,21.2361104 C2.23412431,21.2361104 0,18.8612402 0,15.9316893 C0,13.7394006 1.25112516,11.8577368 3.03578907,11.0494912 C3.61338525,7.53902709 6.49495328,4.87083126 9.96277866,4.87083126 C12.059379,4.87083126 13.9416877,5.84612301 15.2301047,7.3931923 C15.6060063,4.07619181 18.262941,1.50552966 21.4847028,1.50552966 C23.0421016,1.50552966 24.4675143,2.1062299 25.5670806,3.10155735 C27.3754304,1.18492261 29.8704832,1.42108547e-14 32.6258878,1.42108547e-14 C38.1473251,1.42108547e-14 42.6233344,4.75799005 42.6233344,10.6272682 C42.6233344,16.4965464 38.1473251,21.2545364 32.6258878,21.2545364 C32.0657694,21.2545364 31.5164095,21.2055722 30.9813894,21.1114508 Z" id="path-2"></path>
    </defs>
    <g id="Page-1" stroke="none" stroke-width="1" fill="none" fill-rule="evenodd">
        <g id="Cloudy" transform="translate(-1.000000, 1.000000)">
            <ellipse id="Sun" stroke="#FDF262" stroke-width="1.5" cx="42.2740891" cy="26.0120925" rx="26.0820113" ry="26.0120925"></ellipse>
            <g id="Cloud" transform="translate(27.839152, 34.353262)">
                <g id="Combined-Shape">
                    <use fill="#000000" fill-rule="evenodd" xlink:href="#path-1"></use>
                    <path stroke="#979797" stroke-width="1.5" d="M45.6917029,26.6196666 C45.488922,26.6617555 45.2807786,26.6831807 45.0692486,26.6831807 L10.2630513,26.6831807 C10.2023891,26.6831807 10.1419805,26.6813971 10.0818689,26.6778457 C9.89879946,26.6811322 9.78718401,26.6831807 9.67530765,26.6831807 C4.74553214,26.6831807 0.75,22.6986976 0.75,17.7846286 C0.75,12.8705596 4.74553214,8.88607642 9.67530765,8.88607642 C11.6971963,8.88607642 13.6143926,9.55738 15.1726498,10.7737849 L16.0078296,11.425742 L16.3451302,10.4213509 C18.0205038,5.43253541 22.7224877,2.00170406 28.0845417,2.00170406 C31.2295734,2.00170406 34.1887225,3.17494489 36.4574312,5.25393559 L37.0231398,5.77233749 L37.5284998,5.19494855 C39.9837746,2.38972369 43.5230837,0.75 47.330559,0.75 C54.5132802,0.75 60.3351856,6.55580589 60.3351856,13.7165904 C60.3351856,20.8773749 54.5132802,26.6831807 47.330559,26.6831807 C46.8580542,26.6831807 46.3887843,26.6580865 45.9240344,26.6082847 L45.8069754,26.5957408 L45.6917029,26.6196666 Z"></path>
                </g>
            </g>
            <g id="Cloud-2" transform="translate(22.198997, 31.265953) scale(-1, 1) translate(-22.198997, -31.265953) translate(0.698997, 20.265953)">
                <g id="Combined-Shape">
                    <use fill="#000000" fill-rule="evenodd" xlink:href="#path-2"></use>
                    <path stroke="#D1CECE" stroke-width="1.5" d="M30.776003,20.3901211 C30.5103917,20.4657495 30.2342607,20.5045364 29.952734,20.5045364 L6.71318654,20.5045364 C6.47904303,20.5045364 6.24892713,20.4780334 6.0256068,20.4260873 L5.87282094,20.3905481 L5.71859888,20.4192206 C5.47985543,20.463607 5.23646833,20.4861104 4.99005632,20.4861104 C2.65892772,20.4861104 0.75,18.4569236 0.75,15.9316893 C0.75,14.0777783 1.78987169,12.4370764 3.3452002,11.7326931 L3.71069748,11.5671652 L3.77583867,11.1712557 C4.30198461,7.97349136 6.91039179,5.62083126 9.96277866,5.62083126 C11.776283,5.62083126 13.4667619,6.44782573 14.6537909,7.87315309 L15.7775911,9.22255837 L15.9753346,7.47764605 C16.3124362,4.50302141 18.6803515,2.25552966 21.4847028,2.25552966 C22.8125162,2.25552966 24.0680839,2.7563005 25.0637616,3.65758797 L25.608424,4.15061635 L26.1125968,3.61625337 C27.8354234,1.79026312 30.1539991,0.75 32.6258878,0.75 C37.7225216,0.75 41.8733344,5.16230664 41.8733344,10.6272682 C41.8733344,16.0922298 37.7225216,20.5045364 32.6258878,20.5045364 C32.1143825,20.5045364 31.6084534,20.4602475 31.1113349,20.3727938 L30.9416791,20.3429477 L30.776003,20.3901211 Z"></path>
                </g>
            </g>
        </g>
    </g>
</svg>