<?xml version="1.0" encoding="UTF-8"?>
<svg width="14px" height="27px" viewBox="0 0 14 27" version="1.1" xmlns="http://www.w3.org/2000/svg" xmlns:xlink="http://www.w3.org/1999/xlink">
    <!-- Generator: Sketch 43.2 (39069) - http://www.bohemiancoding.com/sketch -->
    <title>Low Temp</title>
    <desc>Created with Sketch.</desc>
    <defs></defs>
    <g id="Page-1" stroke="none" stroke-width="1" fill="none" fill-rule="evenodd">
        <g id="Desktop" transform="translate(-165.000000, -212.000000)">
            <g id="Weather" transform="translate(53.000000, 164.000000)">
                <g id="Weather-Details" transform="translate(109.000000, 0.000000)">
                    <g id="Low-Temp" transform="translate(4.000000, 41.000000)">
                        <g transform="translate(0.000000, 8.000000)" id="Combined-Shape">
                            <path d="M3.78947368,13.44465 C1.56971374,14.3229553 0,16.4848521 0,19.012605 C0,22.319352 2.6862915,25 6,25 C9.3137085,25 12,22.319352 12,19.012605 C12,16.5115727 10.4632974,14.3687025 8.28070175,13.4729326 L8.28070175,1.88737771 C8.28070175,0.852984833 7.43377307,0 6.3890336,0 L5.68114184,0 C4.63423933,0 3.78947368,0.845007782 3.78947368,1.88737771 L3.78947368,13.44465 Z" stroke="#B3B2B2" stroke-width="0.560000002"></path>
                            <path d="M4.9122807,14.3395897 C2.78136674,14.8314457 1.19298246,16.73708 1.19298246,19.0128993 C1.19298246,21.6620019 3.34515752,23.8095238 6,23.8095238 C8.65484248,23.8095238 10.8070175,21.6620019 10.8070175,19.0128993 C10.8070175,16.7621332 9.25341202,14.8734466 7.15789474,14.356346 L7.15789474,12.3999217 C7.15789474,12.2717407 7.06511164,12.1848739 6.95065789,12.1848739 L5.11951754,12.1848739 C5.00877193,12.1848739 4.9122807,12.2811541 4.9122807,12.3999217 L4.9122807,14.3395897 Z" fill="#D8D8D8"></path>
                        </g>
                    </g>
                </g>
            </g>
        </g>
    </g>
</svg>