<?xml version="1.0" encoding="UTF-8"?>
<svg width="51px" height="57px" viewBox="0 0 51 57" version="1.1" xmlns="http://www.w3.org/2000/svg" xmlns:xlink="http://www.w3.org/1999/xlink">
    <!-- Generator: Sketch 43.2 (39069) - http://www.bohemiancoding.com/sketch -->
    <title>Plumber</title>
    <desc>Created with Sketch.</desc>
    <defs></defs>
    <g id="Page-1" stroke="none" stroke-width="1" fill="none" fill-rule="evenodd">
        <g id="Desktop" transform="translate(-121.000000, -250.000000)" fill-rule="nonzero" fill="#D0D0D0">
            <g id="Reminder" transform="translate(65.000000, 250.000000)">
                <path d="M106.225138,17.1174033 L101.294199,17.1174033 L101.294199,16.3425414 C101.294199,15.9198895 101.012431,15.6381215 100.589779,15.6381215 L95.0953039,15.6381215 C94.6726519,15.6381215 94.390884,15.9198895 94.390884,16.3425414 L94.390884,17.1174033 L91.7845304,17.1174033 L91.7845304,14.3701657 C91.7845304,13.9475138 91.5027624,13.6657459 91.0801105,13.6657459 L89.0372928,13.6657459 L89.0372928,10.4958564 L95.8701657,10.4958564 C97.7720994,10.4958564 99.2513812,8.9461326 99.2513812,7.11464088 C99.2513812,5.28314917 97.7016575,3.73342541 95.8701657,3.73342541 L89.1077348,3.73342541 L89.1077348,2.74723757 C89.1077348,1.2679558 87.910221,0 86.3604972,0 C84.8107735,0 83.6132597,1.19751381 83.6132597,2.74723757 L83.6132597,3.73342541 L77.1325967,3.73342541 C75.230663,3.73342541 73.7513812,5.28314917 73.7513812,7.11464088 C73.7513812,8.9461326 75.301105,10.4958564 77.1325967,10.4958564 L83.6837017,10.4958564 L83.6837017,13.6657459 L81.711326,13.6657459 C81.288674,13.6657459 81.0069061,13.9475138 81.0069061,14.3701657 L81.0069061,17.3287293 C67.7638122,19.019337 57.8314917,30.2900552 57.8314917,43.6740331 L57.8314917,49.3798343 L56.7044199,49.3798343 C56.281768,49.3798343 56,49.6616022 56,50.0842541 L56,55.5787293 C56,56.0013812 56.281768,56.2831492 56.7044199,56.2831492 L75.8646409,56.2831492 C76.2872928,56.2831492 76.5690608,56.0013812 76.5690608,55.5787293 L76.5690608,50.0842541 C76.5690608,49.6616022 76.2872928,49.3798343 75.8646409,49.3798343 L74.808011,49.3798343 L74.808011,43.9558011 C74.808011,38.038674 79.5980663,33.1781768 85.5856354,33.1781768 L94.461326,33.1781768 L94.461326,34.1643646 C94.461326,34.5870166 94.7430939,34.8687845 95.1657459,34.8687845 L100.660221,34.8687845 C101.082873,34.8687845 101.364641,34.5870166 101.364641,34.1643646 L101.364641,33.1781768 L106.29558,33.1781768 C106.718232,33.1781768 107,32.8964088 107,32.4737569 L107,17.8218232 C106.929558,17.3991713 106.577348,17.1174033 106.225138,17.1174033 Z M85.0925414,2.74723757 C85.0925414,2.04281768 85.6560773,1.40883978 86.4309392,1.40883978 C87.2058011,1.40883978 87.769337,1.97237569 87.769337,2.74723757 L87.769337,3.73342541 L85.1629834,3.73342541 L85.1629834,2.74723757 L85.0925414,2.74723757 Z M75.160221,7.11464088 C75.160221,6.05801105 76.0759669,5.14226519 77.1325967,5.14226519 L95.8701657,5.14226519 C96.9267956,5.14226519 97.8425414,6.05801105 97.8425414,7.11464088 C97.8425414,8.17127072 96.9267956,9.08701657 95.8701657,9.08701657 L77.1325967,9.08701657 C76.0055249,9.08701657 75.160221,8.17127072 75.160221,7.11464088 Z M85.0925414,10.4958564 L87.628453,10.4958564 L87.628453,13.6657459 L85.0925414,13.6657459 L85.0925414,10.4958564 Z M75.089779,54.8743094 L57.4088398,54.8743094 L57.4088398,50.788674 L75.160221,50.788674 L75.160221,54.8743094 L75.089779,54.8743094 Z M85.5151934,31.839779 C78.8232044,31.839779 73.3287293,37.2638122 73.3287293,44.0262431 L73.3287293,49.4502762 L59.1698895,49.4502762 L59.1698895,43.7444751 C59.1698895,31.1353591 68.538674,20.4986188 80.9364641,18.808011 L80.9364641,19.9350829 C80.9364641,20.3577348 81.218232,20.6395028 81.640884,20.6395028 C82.0635359,20.6395028 82.3453039,20.3577348 82.3453039,19.9350829 L82.3453039,15.0745856 L90.3052486,15.0745856 L90.3052486,19.9350829 C90.3052486,20.3577348 90.5870166,20.6395028 91.0096685,20.6395028 C91.4323204,20.6395028 91.7140884,20.3577348 91.7140884,19.9350829 L91.7140884,18.5262431 L94.320442,18.5262431 L94.320442,31.839779 L85.5151934,31.839779 Z M99.8853591,33.5303867 L95.7997238,33.5303867 L95.7997238,17.0469613 L99.8853591,17.0469613 L99.8853591,33.5303867 Z M101.294199,18.5262431 L102.703039,18.5262431 L102.703039,31.839779 L101.294199,31.839779 L101.294199,18.5262431 Z M105.520718,31.839779 L104.111878,31.839779 L104.111878,18.5262431 L105.520718,18.5262431 L105.520718,31.839779 Z" id="Plumber"></path>
            </g>
        </g>
    </g>
</svg>