<?xml version="1.0" encoding="UTF-8"?>
<svg width="76px" height="56px" viewBox="0 0 76 56" version="1.1" xmlns="http://www.w3.org/2000/svg" xmlns:xlink="http://www.w3.org/1999/xlink">
    <!-- Generator: Sketch 43.2 (39069) - http://www.bohemiancoding.com/sketch -->
    <title>Rainy</title>
    <desc>Created with Sketch.</desc>
    <defs></defs>
    <g id="Page-1" stroke="none" stroke-width="1" fill="none" fill-rule="evenodd">
        <g id="Desktop" transform="translate(-53.000000, -230.000000)" stroke="#979797">
            <g id="Weather" transform="translate(53.000000, 164.000000)">
                <g id="Rainy" transform="translate(0.000000, 66.000000)">
                    <g id="Cloud" transform="translate(38.000000, 17.496689) scale(-1, 1) translate(-38.000000, -17.496689) translate(0.000000, 0.496689)" stroke-width="1.5">
                        <path d="M56.7099622,32.6951599 C56.5485067,32.7214996 56.3842241,32.7348456 56.2180915,32.7348456 L11.7502846,32.7348456 C11.7039685,32.7348456 11.6577999,32.7338127 11.611798,32.7317539 C5.56825022,32.5799777 0.75,27.6902999 0.75,21.7078562 C0.75,15.6193561 5.73371034,10.6808668 11.8848295,10.6808668 C14.4078824,10.6808668 16.8006094,11.5133768 18.7447959,13.0214448 L19.5775581,13.6674024 L19.9149959,12.6689588 C21.9956347,6.51256447 27.8363284,2.27782566 34.4981266,2.27782566 C38.4056119,2.27782566 42.0823764,3.72636431 44.9005734,6.2925562 L45.46435,6.80591951 L45.9683352,6.23374393 C49.0164062,2.77326168 53.4113762,0.75 58.1393009,0.75 C67.0578643,0.75 74.2850314,7.91158963 74.2850314,16.7424228 C74.2850314,25.573256 67.0578643,32.7348456 58.1393009,32.7348456 C57.7198307,32.7348456 57.3023655,32.719017 56.887485,32.6875257 L56.7099622,32.6951599 Z" id="Combined-Shape"></path>
                    </g>
                    <g id="Group" transform="translate(10.857143, 37.269231)" stroke-linecap="square">
                        <path d="M8.46616006,0 L0,18.4430162" id="Rain-Line"></path>
                        <path d="M26.2323938,0 L17.7662338,18.4430162" id="Rain-Line-Copy-2"></path>
                        <path d="M43.9986276,0 L35.5324675,18.4430162" id="Rain-Line-Copy-4"></path>
                        <path d="M17.3492769,0 L8.88311688,18.4430162" id="Rain-Line-Copy"></path>
                        <path d="M35.1155107,0 L26.6493506,18.4430162" id="Rain-Line-Copy-3"></path>
                        <path d="M52.8817445,0 L44.4155844,18.4430162" id="Rain-Line-Copy-5"></path>
                    </g>
                </g>
            </g>
        </g>
    </g>
</svg>