<?xml version="1.0" encoding="UTF-8"?>
<svg width="68px" height="68px" viewBox="0 0 68 68" version="1.1" xmlns="http://www.w3.org/2000/svg" xmlns:xlink="http://www.w3.org/1999/xlink">
    <!-- Generator: Sketch 43.2 (39069) - http://www.bohemiancoding.com/sketch -->
    <title>Sunny</title>
    <desc>Created with Sketch.</desc>
    <defs></defs>
    <g id="Page-1" stroke="none" stroke-width="1" fill="none" fill-rule="evenodd">
        <g id="Desktop" transform="translate(-52.000000, -263.000000)" stroke="#FDF262">
            <g id="Weather" transform="translate(53.000000, 164.000000)">
                <g id="Sunny" transform="translate(0.000000, 100.000000)">
                    <g id="Cloudy-Outline" transform="translate(7.000000, 7.000000)" stroke-width="1.5">
                        <ellipse id="Sun" cx="26.2740891" cy="26.0120925" rx="26.0820113" ry="26.0120925"></ellipse>
                    </g>
                    <g id="Sun-Lines" transform="translate(33.000000, 0.000000)" stroke-width="2" stroke-linecap="square">
                        <path d="M0,3 L0,0" id="Line"></path>
                        <path d="M0,66 L0,63" id="Line"></path>
                    </g>
                    <g id="Sun-Lines" transform="translate(33.500000, 33.000000) rotate(-45.000000) translate(-33.500000, -33.000000) translate(33.000000, 0.000000)" stroke-width="2" stroke-linecap="square">
                        <path d="M0,3 L0,0" id="Line"></path>
                        <path d="M0,66 L0,63" id="Line"></path>
                    </g>
                    <g id="Sun-Lines" transform="translate(33.500000, 33.000000) rotate(-315.000000) translate(-33.500000, -33.000000) translate(33.000000, -0.000000)" stroke-width="2" stroke-linecap="square">
                        <path d="M0,3 L0,0" id="Line"></path>
                        <path d="M0,66 L0,63" id="Line"></path>
                    </g>
                    <g id="Sun-Lines" transform="translate(33.500000, 33.000000) rotate(-337.000000) translate(-33.500000, -33.000000) translate(33.000000, -0.000000)" stroke-width="2" stroke-linecap="square">
                        <path d="M0,3 L0,0" id="Line"></path>
                        <path d="M0,66 L0,63" id="Line"></path>
                    </g>
                    <g id="Sun-Lines" transform="translate(33.500000, 33.000000) rotate(-382.000000) translate(-33.500000, -33.000000) translate(33.000000, -0.000000)" stroke-width="2" stroke-linecap="square">
                        <path d="M0,3 L0,0" id="Line"></path>
                        <path d="M0,66 L0,63" id="Line"></path>
                    </g>
                    <g id="Sun-Lines" transform="translate(33.500000, 33.000000) rotate(-427.000000) translate(-33.500000, -33.000000) translate(33.000000, -0.000000)" stroke-width="2" stroke-linecap="square">
                        <path d="M0,3 L0,0" id="Line"></path>
                        <path d="M0,66 L0,63" id="Line"></path>
                    </g>
                    <g id="Sun-Lines" transform="translate(33.500000, 33.000000) rotate(-292.000000) translate(-33.500000, -33.000000) translate(33.000000, -0.000000)" stroke-width="2" stroke-linecap="square">
                        <path d="M0,3 L0,0" id="Line"></path>
                        <path d="M0,66 L0,63" id="Line"></path>
                    </g>
                    <g id="Sun-Lines" transform="translate(33.000000, 33.500000) rotate(-90.000000) translate(-33.000000, -33.500000) translate(32.500000, 0.500000)" stroke-width="2" stroke-linecap="square">
                        <path d="M0,3 L0,0" id="Line"></path>
                        <path d="M0,66 L0,63" id="Line"></path>
                    </g>
                </g>
            </g>
        </g>
    </g>
</svg>