<?xml version="1.0" encoding="UTF-8"?>
<svg width="45px" height="62px" viewBox="0 0 45 62" version="1.1" xmlns="http://www.w3.org/2000/svg" xmlns:xlink="http://www.w3.org/1999/xlink">
    <!-- Generator: Sketch 43.2 (39069) - http://www.bohemiancoding.com/sketch -->
    <title>Street light</title>
    <desc>Created with Sketch.</desc>
    <defs></defs>
    <g id="Page-1" stroke="none" stroke-width="1" fill="none" fill-rule="evenodd">
        <g id="Desktop" transform="translate(-71.000000, -440.000000)">
            <g id="Traffic" transform="translate(71.000000, 433.000000)">
                <g id="Street-light" transform="translate(0.000000, 7.000000)">
                    <path d="M0.850279487,36.6289474 C0.604824942,36.6289474 0.359370396,36.7105263 0.195734033,36.9552632 C0.0320976692,37.2 -0.0497205126,37.3631579 0.0320976692,37.6078947 C0.0320976692,37.7710526 1.01391585,42.4210526 7.80482494,46.9894737 C7.88664312,46.9894737 7.88664312,47.0710526 7.96846131,47.0710526 L7.96846131,48.7026316 C7.96846131,50.2526316 9.19573403,51.4763158 10.7502795,51.4763158 L18.9320977,51.4763158 L18.9320977,61.1842105 C18.9320977,61.6736842 19.2593704,62 19.7502795,62 C20.2411886,62 20.5684613,61.6736842 20.5684613,61.1842105 L20.5684613,51.4763158 L24.9048249,51.4763158 L24.9048249,61.1842105 C24.9048249,61.6736842 25.2320977,62 25.7230068,62 C26.2139159,62 26.5411886,61.6736842 26.5411886,61.1842105 L26.5411886,51.4763158 L34.6411886,51.4763158 C36.195734,51.4763158 37.4230068,50.2526316 37.4230068,48.7026316 L37.4230068,46.9078947 C44.0502795,42.3394737 44.9502795,37.7710526 44.9502795,37.6078947 C45.0320977,37.3631579 44.9502795,37.1184211 44.7866431,36.9552632 C44.6230068,36.7921053 44.3775522,36.6289474 44.1320977,36.6289474 L37.3411886,36.6289474 L37.3411886,30.5105263 C43.9684613,25.9421053 44.8684613,21.3736842 44.8684613,21.2105263 C44.9502795,20.9657895 44.8684613,20.7210526 44.7048249,20.5578947 C44.5411886,20.3947368 44.295734,20.2315789 44.0502795,20.2315789 L37.2593704,20.2315789 L37.2593704,14.0315789 C43.8866431,9.46315789 44.7866431,4.89473684 44.7866431,4.73157895 C44.8684613,4.48684211 44.7866431,4.24210526 44.6230068,4.07894737 C44.4593704,3.91578947 44.2139159,3.75263158 43.9684613,3.75263158 L37.1775522,3.75263158 L37.1775522,2.77368421 C37.1775522,1.22368421 35.9502795,0 34.395734,0 L10.7502795,0 C9.19573403,0 7.96846131,1.22368421 7.96846131,2.77368421 L7.96846131,3.75263158 L0.850279487,3.75263158 C0.604824942,3.75263158 0.359370396,3.83421053 0.195734033,4.07894737 C0.0320976692,4.32368421 -0.0497205126,4.48684211 0.0320976692,4.73157895 C0.0320976692,4.89473684 1.01391585,9.54473684 7.80482494,14.1947368 C7.88664312,14.1947368 7.88664312,14.2763158 7.96846131,14.2763158 L7.96846131,20.2315789 L0.850279487,20.2315789 C0.604824942,20.2315789 0.359370396,20.3131579 0.195734033,20.5578947 C0.0320976692,20.8026316 -0.0497205126,20.9657895 0.0320976692,21.2105263 C0.0320976692,21.3736842 1.01391585,26.0236842 7.80482494,30.5921053 C7.88664312,30.5921053 7.88664312,30.6736842 7.96846131,30.6736842 L7.96846131,36.6289474 L0.850279487,36.6289474 L0.850279487,36.6289474 Z M1.99573403,38.2605263 L7.96846131,38.2605263 L7.96846131,45.1131579 C4.12300676,42.3394737 2.56846131,39.6473684 1.99573403,38.2605263 Z M43.0684613,38.2605263 C42.495734,39.6473684 41.0230068,42.1763158 37.4230068,44.8684211 L37.4230068,38.2605263 L43.0684613,38.2605263 L43.0684613,38.2605263 Z M43.0684613,21.8631579 C42.495734,23.1684211 41.0230068,25.7789474 37.4230068,28.4710526 L37.4230068,21.8631579 L43.0684613,21.8631579 Z M43.0684613,5.46578947 C42.495734,6.85263158 41.0230068,9.38157895 37.4230068,12.0736842 L37.4230068,5.46578947 L43.0684613,5.46578947 Z M9.60482494,2.85526316 C9.60482494,2.20263158 10.095734,1.71315789 10.7502795,1.71315789 L34.5593704,1.71315789 C35.2139159,1.71315789 35.7048249,2.20263158 35.7048249,2.85526316 L35.7048249,48.7026316 C35.7048249,49.3552632 35.2139159,49.8447368 34.5593704,49.8447368 L10.7502795,49.8447368 C10.095734,49.8447368 9.60482494,49.3552632 9.60482494,48.7026316 L9.60482494,2.85526316 Z M1.99573403,5.46578947 L7.96846131,5.46578947 L7.96846131,12.3184211 C4.12300676,9.54473684 2.56846131,6.85263158 1.99573403,5.46578947 Z M1.99573403,21.8631579 L7.96846131,21.8631579 L7.96846131,28.7157895 C4.12300676,25.9421053 2.56846131,23.25 1.99573403,21.8631579 Z" id="Shape" fill="#D1D1D1" fill-rule="nonzero"></path>
                    <g id="Streetlight-lights" transform="translate(18.000000, 6.000000)" stroke="#D1D1D1" stroke-width="1.4">
                        <circle id="Oval-4" cx="4.5" cy="4.5" r="4.5"></circle>
                        <circle id="Oval-4-Copy" cx="4.5" cy="19.5" r="4.5"></circle>
                        <circle id="Oval-4-Copy-2" fill="#7DD61B" cx="4.5" cy="35.5" r="4.5"></circle>
                    </g>
                </g>
            </g>
        </g>
    </g>
</svg>