<?xml version="1.0" encoding="UTF-8"?>
<svg width="21px" height="24px" viewBox="0 0 21 24" version="1.1" xmlns="http://www.w3.org/2000/svg" xmlns:xlink="http://www.w3.org/1999/xlink">
    <!-- Generator: Sketch 43.2 (39069) - http://www.bohemiancoding.com/sketch -->
    <title>Shape</title>
    <desc>Created with Sketch.</desc>
    <defs></defs>
    <g id="Page-1" stroke="none" stroke-width="1" fill="none" fill-rule="evenodd">
        <g id="Desktop" transform="translate(-303.000000, -215.000000)" fill-rule="nonzero" fill="#D8D8D8">
            <g id="Weather" transform="translate(53.000000, 164.000000)">
                <g id="Weather-Details" transform="translate(109.000000, 0.000000)">
                    <g id="Wind" transform="translate(141.000000, 41.000000)">
                        <path d="M20.1780861,12.5167379 C20.1433875,12.4995591 20.1061704,12.4874019 20.0672744,12.4810589 L4.80799727,10.0049391 C4.67787745,9.98406028 4.54579884,10.0303108 4.46185057,10.1259833 C4.41316057,10.1817482 4.38741644,10.2499346 4.38154006,10.3194425 L0.846198565,12.9914002 C0.756653744,12.9028635 0.631290993,12.8468344 0.491377209,12.8468344 C0.219944468,12.8468344 0,13.0545652 0,13.3103966 L0,33.3218005 C0,33.5778961 0.219944468,33.785627 0.491377209,33.785627 C0.762530122,33.785627 0.982194763,33.5778961 0.982194763,33.3218005 L0.982194763,14.1915347 L4.08268422,16.8756497 C4.08044559,16.9501791 4.10031335,17.0244442 4.14732438,17.0873449 C4.22287783,17.1877746 4.34908006,17.2430109 4.47864022,17.2327036 L19.907213,16.0024402 C19.9553433,15.9987402 20.0017947,15.9860543 20.0443285,15.9654398 C20.0479663,15.9635898 20.0513242,15.9617398 20.054962,15.9598897 C20.0910597,15.9411252 20.9403364,15.4823202 20.9971414,14.2391067 C21.0550657,12.9721072 20.213904,12.5347095 20.1780861,12.5167379 Z M14.9260025,14.0141971 C14.8820695,14.9770004 14.6738778,15.5650426 14.6092377,15.7265229 L9.81719056,16.1086842 C9.95486573,15.6948083 10.1557819,14.9212356 10.2061509,13.8154521 C10.2556804,12.7289616 10.129758,11.9717748 10.0292999,11.5581632 L14.7662209,12.3267144 C14.8140714,12.4776232 14.9699354,13.0500723 14.9260025,14.0141971 Z M0.982194763,13.4827127 L3.93045802,11.2542313 C3.78494768,11.7629868 3.61789062,12.5532097 3.56976028,13.6085141 C3.52246942,14.648754 3.61509235,15.4233839 3.71359165,15.9265894 L0.982194763,13.5619993 L0.982194763,13.4827127 Z M4.72069107,13.5839353 C4.67955642,14.4946738 4.55419367,15.2193531 4.42799143,15.7444945 C4.34264403,15.2856895 4.26289317,14.5805676 4.30542696,13.6383787 C4.34935989,12.6710824 4.5007466,11.9434959 4.63114625,11.4759694 C4.70641986,11.9873678 4.76154589,12.6914327 4.72069107,13.5839353 Z M5.4569174,13.6137999 C5.51736016,12.2801996 5.37492792,11.3311393 5.25012483,10.7827404 L9.22927284,11.4283975 C9.2298325,11.4297189 9.22927284,11.4313046 9.2298325,11.4328904 C9.2329106,11.440819 9.53960162,12.2529779 9.46992455,13.7855875 C9.40108697,15.2959968 9.03003562,16.1335273 9.01212665,16.1729063 L4.9828895,16.4942813 C5.15890104,15.942711 5.39507551,14.971979 5.4569174,13.6137999 Z M19.7488306,15.3166113 L15.4047874,15.6630936 C15.5055254,15.3266543 15.6283697,14.7816912 15.6622288,14.044326 C15.6949686,13.3230824 15.6252916,12.7894837 15.5556145,12.4548944 L19.8680371,13.1544663 C19.9768901,13.2337529 20.2925356,13.5247346 20.2614747,14.2089778 C20.2304138,14.8921638 19.8862259,15.2145959 19.7488306,15.3166113 Z" id="Shape"></path>
                    </g>
                </g>
            </g>
        </g>
    </g>
</svg>